PathFileType	4	(X/Y/Z)	Patient4_TMGait_0pt7_02_left_17.trc.trc
DataRate	CameraRate	NumFrames	NumMarkers	Units	OrigDataRate	OrigDataStartFrame	OrigNumFrames
86.419753086420	86.419753086420	5	33	mm	86.419753086420	1	       141
Frame#	Time	Sacral			L.Shoulder			Chest			R.Shoulder			Neck			R.ASIS			L.ASIS			R.Thigh.Superior			R.Thigh.Lateral			R.Thigh.Inferior			R.Patella			L.Thigh.Superior			L.Thigh.Lateral			L.Thigh.Inferior			L.Patella			L.Shank.Superior			L.Shank.Lateral			L.Shank.Inferior			R.Shank.Superior			R.Shank.Lateral			R.Shank.Inferior			R.Heel			R.Midfoot.Superior			R.Midfoot.Lateral			R.Toe			L.Heel			L.Midfoot.Lateral			L.Midfoot.Superior			L.Toe			L.Elbow			L.Wrist			R.Elbow			R.Wrist			
		X1	Y1	Z1	X2	Y2	Z2	X3	Y3	Z3	X4	Y4	Z4	X5	Y5	Z5	X6	Y6	Z6	X7	Y7	Z7	X8	Y8	Z8	X9	Y9	Z9	X10	Y10	Z10	X11	Y11	Z11	X12	Y12	Z12	X13	Y13	Z13	X14	Y14	Z14	X15	Y15	Z15	X16	Y16	Z16	X17	Y17	Z17	X18	Y18	Z18	X19	Y19	Z19	X20	Y20	Z20	X21	Y21	Z21	X22	Y22	Z22	X23	Y23	Z23	X24	Y24	Z24	X25	Y25	Z25	X26	Y26	Z26	X27	Y27	Z27	X28	Y28	Z28	X29	Y29	Z29	X30	Y30	Z30	X31	Y31	Z31	X32	Y32	Z32	X33	Y33	Z33	

1	19.190000000000	805.659842412457	1018.770379206466	525.281379998130	988.133431825551	1438.298347072641	336.184389296646	1105.090240481427	1359.769850585152	484.406422748719	1046.580427719667	1435.557656577612	667.202987892857	1009.230169445060	1496.675617477236	491.770535035389	1035.201617766825	943.160854576029	626.955927101766	1004.283418310462	964.662283258798	355.166026834520	1067.057225681925	743.398995052404	605.543989758006	979.759692091520	637.581766467229	661.258441660186	1058.959931569253	584.047014416534	583.843174868820	1055.925277431310	497.919352769304	590.551003679038	1090.682018042153	795.017983554097	367.918213052000	1047.687962836543	670.451501326501	284.000999079119	1162.799839645157	613.011633731217	331.529980125204	1180.275544207326	522.309214305201	318.663661843545	1112.556057999318	453.002002454775	320.831358076800	965.912519499263	413.167374508672	286.871678114205	956.153284982997	286.044989161771	346.400867100669	1029.866743334158	409.788340659022	594.952792118976	955.569317563717	303.513375136989	648.219082464513	1007.872600906861	211.093541054664	587.351894097032	881.402368517479	43.607315264254	542.313392364524	1052.583190372361	99.182443987189	587.969890670606	961.749008950458	36.698946228098	619.472254320324	1169.993348240485	45.695866530230	617.921179228771	768.341606912912	221.322475523759	403.570123187849	818.514149263708	177.446799556307	317.558537298164	925.014756308631	187.976605525399	329.295938886598	1002.394852583581	78.349214351300	291.913365024389	925.845849975095	1090.633494545333	224.524874573560	1027.371837664322	849.254095648610	226.684740236391	1045.633762561472	1084.797862447051	790.629103361055	1162.216686286409	847.536387315854	781.388108816199	
2	19.201571428571	803.920222689197	1019.012565735337	526.183876615984	987.011251544893	1437.612264203984	336.377788241734	1104.411598254095	1359.125281786903	484.245531160333	1046.883399607553	1435.376578713465	667.212605379672	1009.028816376530	1496.255818184741	491.751107506859	1033.768439320686	942.908207519412	627.558815813412	1002.246932159704	964.618424699565	355.714056531886	1063.858191259021	742.686256371620	605.257807220080	976.081656501860	637.308151015909	661.418794328444	1054.430210240507	583.199948241926	583.718577086830	1050.666808479793	497.188384814554	590.143847090619	1090.688620993381	798.914248462544	369.183490732048	1051.580396861460	674.372114944112	283.532003003219	1167.408935835125	619.351738070615	331.838117008839	1187.429559829687	529.535289813272	318.264309415086	1122.430661360681	458.284968581872	319.775671021250	977.857760979110	412.627069455424	285.515432348470	973.587698698920	285.011738837214	344.096001901977	1024.142403583379	409.209552286856	594.497532402458	949.482419779108	303.351381465924	648.184757791904	1000.657107679767	210.610740150906	586.899143750634	872.827838899305	43.624201760140	542.190011386260	1044.082241377922	99.013448332948	587.856763829666	953.244214053378	36.747248531273	619.486388240835	1161.492351963677	45.335879235487	618.049126262385	789.352335986071	212.161794516802	400.946741023676	840.966475478743	171.115936708655	314.532664956833	946.820107689206	186.004121917098	326.226616089840	1028.382126248334	80.149333527199	287.944223414070	916.934406317627	1090.717566898758	227.804221855078	999.871769063609	845.129918756508	226.353350247536	1057.424073375981	1085.194028054370	790.428289608788	1187.515214520900	857.024644277422	776.845413776810	
3	19.213142857143	802.211715721617	1019.229419665962	527.064409427580	985.908638840467	1436.924363206487	336.543028123888	1103.744029702181	1358.472047656620	484.059138219190	1047.182652694660	1435.181854873987	667.192895761102	1008.829139047909	1495.823192717375	491.697841067152	1032.349473755739	942.640788095230	628.125929944591	1000.232136492452	964.542732441814	356.235221167453	1060.688782126148	741.958669355966	604.928619183246	972.446890846606	637.021797774140	661.554166889928	1049.921502605682	582.341751763034	583.551389785128	1045.424611258926	496.453509473648	589.697569724127	1090.634028635662	802.692436152136	370.429020644060	1055.332631048147	678.193511846036	283.107199705295	1171.835013203249	625.541926280098	332.190171896582	1194.356174414499	536.622173427984	317.921973866465	1132.080775948755	463.465837115818	318.756135554626	989.616565600020	412.002937127502	284.184112557927	990.856305670002	283.930364706824	341.791447897645	1018.463908833092	408.628461436616	594.021004533791	943.463096725587	303.172560524503	648.140142315479	993.513482713951	210.125005277664	586.431250590397	864.362523713377	43.632166355714	542.075267208457	1035.673574754202	98.844484587311	587.736672937214	944.836100327303	36.790163868559	619.499970109914	1153.089572110367	44.990379481397	618.167619374139	810.245735354332	202.987096165048	398.299551381709	863.277242727392	164.780323590651	311.480887195498	968.454321668307	184.004368993000	323.149775559525	1054.169935995304	81.940604020667	283.951547193893	908.147937167639	1090.848563866480	230.956490120174	972.821261454332	841.378879518834	226.069655724274	1068.979898273960	1085.644845605950	790.201287500930	1212.395527178144	866.662117299357	772.254918622597	
4	19.224714285714	800.563956709536	1019.399318157782	527.899444559536	984.841214739607	1436.231029433834	336.641732274406	1103.098839422204	1357.798278954351	483.806234960110	1047.483808734574	1434.957670851997	667.100153263200	1008.634611677121	1495.362682003837	491.567859323494	1030.961372855778	942.344270933389	628.617151721078	998.257996223781	964.397328836483	356.692702650675	1057.547326214957	741.193808973704	604.520401329162	968.848499886196	636.712759865563	661.645036736742	1045.396290810466	581.456629471629	583.308350299434	1040.150381389177	495.708111915992	589.183653705101	1090.445557218952	806.216242631117	371.634318999378	1058.781743764139	681.780855054157	282.770150238110	1175.875988403272	631.393057216846	332.623193934699	1200.812015136192	543.410076476486	317.706070134980	1141.296620969227	468.430683355538	317.828251447670	1001.104093262780	411.164313017571	282.868260446308	1007.923223743776	282.740054890950	339.479938029832	1012.794618792613	408.038159175163	593.505655857832	937.496077059479	302.964044649698	648.078585917251	986.428529699559	209.635082142342	585.938015335958	856.024468320799	43.623478068919	541.978017022782	1027.361399782035	98.676748344210	587.604594827096	936.533037963907	36.823245367923	619.512604941313	1144.794594562691	44.674731216944	618.268190857398	831.113104541900	193.714939803957	395.536164889791	885.550065026499	158.406472411605	308.342737618391	989.942012312081	181.962027363231	320.059855803579	1079.785766337533	83.798538881049	279.979036248972	899.531935818499	1091.108631234300	233.858586165534	946.546733421182	838.372513680231	225.888348550934	1080.140501389829	1086.213413982774	789.890310812716	1236.540459584649	876.781528959434	767.497988610152	
5	19.236285714286	799.001665310923	1019.507895544478	528.669665769465	983.821156040061	1435.530897442467	336.639828152091	1102.486201107236	1357.095129496485	483.449231333762	1047.795191098589	1434.691731322298	666.895791956016	1008.449789426201	1494.863177438324	491.325407608244	1029.619965619585	942.010548875534	629.000148571753	996.340085570421	964.151170750782	357.053116122840	1054.425865672539	740.372959930179	604.006893354213	965.265479502679	636.376465296465	661.679621705059	1040.806300669914	580.532467478950	582.967990384498	1034.787460233473	494.947942274152	588.587133046053	1090.063244204120	809.370354313656	372.782894830136	1061.786451739831	685.011207218014	282.557834974240	1179.363472636899	636.737293222081	333.159435023810	1206.594215865561	549.757930349296	317.672100095768	1149.909763959024	473.079682033454	317.043667945398	1012.280912030849	409.994246154913	281.545342792336	1024.786579060188	281.394208931446	337.155921772974	1007.080344460231	407.434168662636	592.942696097684	931.540594412193	302.718405075513	647.996552406795	979.367081971378	209.141155743693	585.416032192649	847.802386733018	43.591985956163	541.904181303579	1019.126860677765	98.512768899524	587.459149405130	928.319167325787	36.842992012186	619.524808463239	1136.591538888355	44.403124651787	618.344983105188	852.073465954669	184.274711701507	392.556242080070	907.929162902295	151.973396455216	305.058852262674	1011.348886779228	179.877828715065	316.959482792166	1105.302858884207	85.814663576350	276.099292040971	891.100953865068	1091.574636301223	236.412645848351	921.300211189412	836.394032747276	225.853970172821	1090.794410905691	1086.948295310897	789.439405484717	1259.708660127441	887.695236773826	762.463545118780	
